# File created by Blade
# Date/Time:  Wed Jan 21 15:55:59 2015
#---------------------------------------------------------
:version 1.10
:name HOM
:units
  mass 1.0
  length 1.000000
  angle deg
:documentation
     Acclaim Skeleton File
:root
   axis xyz
   order TX TY TZ RX RY RZ
   position 0.000000 0.000000 0.000000
   orientation 0 0 0
:bonedata
   begin
      id 1
      name Spine_dum
      direction 0.000000 1.000000 0.000000
      length 7.067664
      axis 0.0 0.0 0.0 xyz
   end
   begin
      id 2
      name LeftUpLeg_dum
      direction 1.000000 0.000000 0.000000
      length 4.013002
      axis 0.0 0.0 0.0 xyz
   end
   begin
      id 3
      name RightUpLeg_dum
      direction -1.000000 0.000000 0.000000
      length 4.013002
      axis 0.0 0.0 0.0 xyz
   end
   begin
      id 4
      name Spine
      direction 0.000000 1.000000 0.000000
      length 0.000000
      axis 0.0 0.0 0.0 xyz
      dof rx ry rz
   end
   begin
      id 5
      name Spine_dum1
      direction 0.000000 1.000000 0.000000
      length 15.039886
      axis 0.0 0.0 0.0 xyz
   end
   begin
      id 6
      name Spine_dum2
      direction 0.000000 1.000000 0.000000
      length 10.530368
      axis 0.0 0.0 0.0 xyz
   end
   begin
      id 7
      name Spine_dum3
      direction 0.000000 1.000000 0.000000
      length 10.530368
      axis 0.0 0.0 0.0 xyz
   end
   begin
      id 8
      name Head
      direction 0.000000 1.000000 0.000000
      length 4.527550
      axis 0.0 0.0 0.0 xyz
      dof rx ry rz
   end
   begin
      id 9
      name LeftShoulder
      direction 1.000000 0.000000 0.000000
      length 7.028855
      axis 0.0 0.0 -90.0 xyz
      dof rx ry rz
   end
   begin
      id 10
      name LeftArm
      direction 1.000000 0.000000 0.000000
      length 10.797705
      axis 0.0 0.0 -90.0 xyz
      dof rx ry rz
   end
   begin
      id 11
      name LeftForeArm
      direction 1.000000 0.000000 0.000000
      length 7.907442
      axis 0.0 0.0 -90.0 xyz
      dof ry rz rx
   end
   begin
      id 12
      name LeftHand
      direction 0.000000 0.000000 0.000000
      length 0.000000
      axis 0.0 0.0 -90.0 xyz
      dof rx ry rz
   end
   begin
      id 13
      name LeftHand_dum1
      direction 0.000000 0.000000 0.000000
      length 0.000000
      axis 0.0 0.0 -90.0 xyz
   end
   begin
      id 14
      name LeftHand_dum2
      direction 1.000000 0.000000 0.000000
      length 3.937000
      axis 0.0 0.0 -90.0 xyz
   end
   begin
      id 15
      name LeftHandThumb1
      direction 0.000000 0.000000 1.000000
      length 3.937000
      axis 0.0 0.0 -90.0 xyz
      dof rx rz ry
   end
   begin
      id 16
      name RightShoulder
      direction -1.000000 0.000000 0.000000
      length 7.028855
      axis 0.0 0.0 90.0 xyz
      dof rx ry rz
   end
   begin
      id 17
      name RightArm
      direction -1.000000 0.000000 0.000000
      length 10.797705
      axis 0.0 0.0 90.0 xyz
      dof rx ry rz
   end
   begin
      id 18
      name RightForeArm
      direction -1.000000 0.000000 0.000000
      length 7.907442
      axis 0.0 0.0 90.0 xyz
      dof ry rz rx
   end
   begin
      id 19
      name RightHand
      direction 0.000000 0.000000 0.000000
      length 0.000000
      axis 0.0 0.0 90.0 xyz
      dof rx ry rz
   end
   begin
      id 20
      name RightHand_dum1
      direction 0.000000 0.000000 0.000000
      length 0.000000
      axis 0.0 0.0 90.0 xyz
   end
   begin
      id 21
      name RightHand_dum2
      direction -1.000000 0.000000 0.000000
      length 3.937000
      axis 0.0 0.0 90.0 xyz
   end
   begin
      id 22
      name RightHandThumb1
      direction 0.000000 0.000000 1.000000
      length 3.937000
      axis 0.0 0.0 90.0 xyz
      dof rx rz ry
   end
   begin
      id 23
      name LeftUpLeg
      direction 0.000000 -1.000000 0.000000
      length 16.899758
      axis 0.0 0.0 0.0 xyz
      dof rx ry rz
   end
   begin
      id 24
      name LeftLeg
      direction 0.000000 -1.000000 0.000000
      length 17.389183
      axis 0.0 0.0 0.0 xyz
      dof rx ry rz
   end
   begin
      id 25
      name LeftFoot
      direction 0.000000 -0.258819 0.965926
      length 4.924528
      axis 15.0 0.0 0.0 xyz
      dof rx ry rz
   end
   begin
      id 26
      name LeftToeBase
      direction 0.000000 0.000000 1.000000
      length 2.952750
      axis 0.0 0.0 0.0 xyz
      dof rx ry rz
   end
   begin
      id 27
      name RightUpLeg
      direction 0.000000 -1.000000 0.000000
      length 16.899758
      axis 0.0 0.0 0.0 xyz
      dof rx ry rz
   end
   begin
      id 28
      name RightLeg
      direction 0.000000 -1.000000 0.000000
      length 17.389183
      axis 0.0 0.0 0.0 xyz
      dof rx ry rz
   end
   begin
      id 29
      name RightFoot
      direction 0.000000 -0.258819 0.965926
      length 4.924528
      axis 15.0 0.0 0.0 xyz
      dof rx ry rz
   end
   begin
      id 30
      name RightToeBase
      direction 0.000000 0.000000 1.000000
      length 2.952750
      axis 0.0 0.0 0.0 xyz
      dof rx ry rz
   end
:hierarchy
   begin
      root Spine_dum LeftUpLeg_dum RightUpLeg_dum
      Spine_dum Spine
      LeftUpLeg_dum LeftUpLeg
      RightUpLeg_dum RightUpLeg
      Spine Spine_dum1 Spine_dum2 Spine_dum3
      Spine_dum1 Head
      Spine_dum2 LeftShoulder
      Spine_dum3 RightShoulder
      LeftShoulder LeftArm
      LeftArm LeftForeArm
      LeftForeArm LeftHand
      LeftHand LeftHand_dum1 LeftHand_dum2
      LeftHand_dum1 LeftHandThumb1
      RightShoulder RightArm
      RightArm RightForeArm
      RightForeArm RightHand
      RightHand RightHand_dum1 RightHand_dum2
      RightHand_dum1 RightHandThumb1
      LeftUpLeg LeftLeg
      LeftLeg LeftFoot
      LeftFoot LeftToeBase
      RightUpLeg RightLeg
      RightLeg RightFoot
      RightFoot RightToeBase
   end

# File created by Blade
# Date/Time:  Wed Jan 21 15:55:51 2015
# Frame Rate: 120.000 fps
#------------------------------------------------------
:FULLY-SPECIFIED
:DEGREES
46
root 17.857003 35.466953 -21.808325 -174.419218 -0.418583 -178.372577
Spine -12.997026 1.030433 0.459510
Head 5.533036 -1.556689 1.137556
LeftShoulder -13.094551 -28.815963 20.319016
LeftArm -1.189190 -0.767122 -8.428209
LeftForeArm 7.006371 0.000000 -1.765568
LeftHand -8.325344 -0.000000 -5.875213
LeftHandThumb1 -26.253704 0.000000 33.147579
RightShoulder -14.963302 -9.916985 -8.070208
RightArm 7.731767 38.678844 13.763537
RightForeArm -33.918723 -0.000000 6.535186
RightHand -6.119992 -0.000000 8.179210
RightHandThumb1 -24.326973 -0.000000 -32.862282
LeftUpLeg 4.069790 10.869803 2.523202
LeftLeg -6.913597 -0.000000 0.000000
LeftFoot -21.442721 25.871143 -13.752922
LeftToeBase 26.036733 -0.000000 -0.000000
RightUpLeg 2.456398 -12.058225 -0.373979
RightLeg -3.533120 -0.000000 0.000000
RightFoot -20.752450 -22.890253 17.373404
RightToeBase 23.608712 -0.000000 -0.000000
47
root 17.859225 35.467874 -21.802790 -174.416037 -0.406147 -178.372872
Spine -12.998618 1.035036 0.459853
Head 5.565014 -1.572144 1.131597
LeftShoulder -13.094716 -28.827951 20.330247
LeftArm -1.192486 -0.781924 -8.412921
LeftForeArm 6.996818 -0.000000 -1.767043
LeftHand -8.324276 0.000000 -5.888350
LeftHandThumb1 -26.253704 0.000000 33.147579
RightShoulder -14.957625 -9.910447 -8.086126
RightArm 7.723355 38.689182 13.759613
RightForeArm -33.965529 -0.000000 6.536208
RightHand -6.112487 0.000000 8.173027
RightHandThumb1 -24.326973 -0.000000 -32.862282
LeftUpLeg 4.052495 10.900965 2.521699
LeftLeg -6.902256 -0.000000 0.000000
LeftFoot -21.438014 25.863829 -13.743584
LeftToeBase 26.042390 -0.000000 -0.000000
RightUpLeg 2.438788 -12.038893 -0.368509
RightLeg -3.526389 -0.000000 0.000000
RightFoot -20.746393 -22.895695 17.373222
RightToeBase 23.518654 -0.000000 -0.000000
48
root 17.861356 35.468653 -21.796892 -174.418409 -0.395299 -178.371171
Spine -12.989472 1.027974 0.464112
Head 5.602252 -1.550274 1.111884
LeftShoulder -13.099279 -28.863807 20.355705
LeftArm -1.225467 -0.775145 -8.401797
LeftForeArm 7.000001 -0.000000 -1.754527
LeftHand -8.324746 -0.000000 -5.892340
LeftHandThumb1 -26.253704 0.000000 33.147579
RightShoulder -14.940885 -9.898405 -8.109116
RightArm 7.717020 38.675099 13.762308
RightForeArm -33.944893 -0.000000 6.519594
RightHand -6.089480 0.000000 8.145274
RightHandThumb1 -24.326973 -0.000000 -32.862282
LeftUpLeg 4.037309 10.932438 2.524046
LeftLeg -6.883848 -0.000000 0.000000
LeftFoot -21.439315 25.847240 -13.748197
LeftToeBase 26.019234 -0.000000 -0.000000
RightUpLeg 2.430862 -12.003817 -0.363384
RightLeg -3.527032 -0.000000 0.000000
RightFoot -20.744348 -22.922276 17.367433
RightToeBase 23.575170 -0.000000 -0.000000
49
root 17.863889 35.469426 -21.791325 -174.420590 -0.387798 -178.369879
Spine -12.980977 1.024409 0.465829
Head 5.615039 -1.545061 1.119428
LeftShoulder -13.111608 -28.860249 20.368941
LeftArm -1.221170 -0.814375 -8.395454
LeftForeArm 7.027071 -0.000000 -1.751642
LeftHand -8.362341 -0.000000 -5.886480
LeftHandThumb1 -26.253704 0.000000 33.147579
RightShoulder -14.934429 -9.890473 -8.132321
RightArm 7.716422 38.640543 13.773180
RightForeArm -33.834319 -0.000000 6.530036
RightHand -6.127965 0.000000 8.131595
RightHandThumb1 -24.326973 -0.000000 -32.862282
LeftUpLeg 4.033126 10.931758 2.528451
LeftLeg -6.886871 -0.000000 0.000000
LeftFoot -21.418904 25.851568 -13.746995
LeftToeBase 26.030163 -0.000000 -0.000000
RightUpLeg 2.428391 -11.986383 -0.356663
RightLeg -3.538394 -0.000000 0.000000
RightFoot -20.727613 -22.936400 17.367220
RightToeBase 23.560126 -0.000000 -0.000000
50
root 17.866203 35.470224 -21.786027 -174.418573 -0.372209 -178.365076
Spine -12.982003 1.028479 0.472053
Head 5.658845 -1.504249 1.104879
LeftShoulder -13.114350 -28.867543 20.378863
LeftArm -1.225433 -0.838446 -8.384774
LeftForeArm 7.033186 -0.000000 -1.765592
LeftHand -8.359768 0.000000 -5.885192
LeftHandThumb1 -26.253704 0.000000 33.147579
RightShoulder -14.917471 -9.876042 -8.155596
RightArm 7.709770 38.628254 13.780126
RightForeArm -33.780410 -0.000000 6.503088
RightHand -6.116706 -0.000000 8.062710
RightHandThumb1 -24.326973 -0.000000 -32.862282
LeftUpLeg 4.023938 10.941944 2.533720
LeftLeg -6.886510 -0.000000 0.000000
LeftFoot -21.420352 25.858477 -13.748092
LeftToeBase 26.058714 -0.000000 -0.000000
RightUpLeg 2.411254 -11.994319 -0.346998
RightLeg -3.530610 -0.000000 0.000000
RightFoot -20.723336 -22.912659 17.362816
RightToeBase 23.615005 -0.000000 -0.000000
51
root 17.868223 35.470564 -21.782151 -174.425401 -0.375015 -178.368108
Spine -12.988249 1.015142 0.470298
Head 5.741457 -1.523376 1.080437
LeftShoulder -13.089936 -28.850147 20.380049
LeftArm -1.248252 -0.870416 -8.377556
LeftForeArm 7.021710 -0.000000 -1.764866
LeftHand -8.378860 0.000000 -5.858593
LeftHandThumb1 -26.253704 0.000000 33.147579
RightShoulder -14.874107 -9.892336 -8.175668
RightArm 7.652791 38.642427 13.761876
RightForeArm -33.790632 -0.000000 6.526052
RightHand -6.141633 -0.000000 8.053811
RightHandThumb1 -24.326973 -0.000000 -32.862282
LeftUpLeg 4.023046 10.933094 2.533250
LeftLeg -6.885264 -0.000000 0.000000
LeftFoot -21.409887 25.870304 -13.750876
LeftToeBase 26.035020 -0.000000 -0.000000
RightUpLeg 2.417294 -11.957881 -0.347091
RightLeg -3.538011 -0.000000 0.000000
RightFoot -20.723545 -22.943424 17.367324
RightToeBase 23.565930 -0.000000 -0.000000
52
root 17.870994 35.471590 -21.776836 -174.438616 -0.367932 -178.369746
Spine -12.959345 1.004050 0.468743
Head 5.741729 -1.527938 1.102337
LeftShoulder -13.115615 -28.870374 20.404158
LeftArm -1.255199 -0.896847 -8.377660
LeftForeArm 7.033238 -0.000000 -1.758192
LeftHand -8.368631 -0.000000 -5.849295
LeftHandThumb1 -26.253704 0.000000 33.147579
RightShoulder -14.855303 -9.870901 -8.184529
RightArm 7.630293 38.644825 13.754190
RightForeArm -33.828425 -0.000000 6.537027
RightHand -6.149036 -0.000000 8.036959
RightHandThumb1 -24.326973 -0.000000 -32.862282
LeftUpLeg 4.022717 10.939008 2.536529
LeftLeg -6.872609 -0.000000 0.000000
LeftFoot -21.409475 25.865667 -13.766049
LeftToeBase 26.014599 -0.000000 -0.000000
RightUpLeg 2.419317 -11.953804 -0.345540
RightLeg -3.535199 -0.000000 0.000000
RightFoot -20.720342 -22.938556 17.362710
RightToeBase 23.608134 -0.000000 -0.000000
53
root 17.873751 35.472101 -21.773285 -174.442230 -0.377503 -178.371341
Spine -12.961153 0.994631 0.464454
Head 5.792356 -1.544572 1.083713
LeftShoulder -13.102832 -28.865038 20.407879
LeftArm -1.253927 -0.896956 -8.375648
LeftForeArm 7.018399 -0.000000 -1.778676
LeftHand -8.341943 0.000000 -5.850948
LeftHandThumb1 -26.253704 0.000000 33.147579
RightShoulder -14.852443 -9.886457 -8.195140
RightArm 7.630591 38.664929 13.763181
RightForeArm -33.876691 -0.000000 6.523114
RightHand -6.158577 -0.000000 7.993562
RightHandThumb1 -24.326973 -0.000000 -32.862282
LeftUpLeg 4.014417 10.920432 2.539574
LeftLeg -6.863143 -0.000000 0.000000
LeftFoot -21.403252 25.868199 -13.767154
LeftToeBase 26.028544 -0.000000 -0.000000
RightUpLeg 2.420277 -11.985345 -0.341430
RightLeg -3.539928 -0.000000 0.000000
RightFoot -20.704055 -22.924380 17.352918
RightToeBase 23.578144 -0.000000 -0.000000
54
root 17.876301 35.472793 -21.768967 -174.449685 -0.364683 -178.369384
Spine -12.950312 1.000992 0.462925
Head 5.826699 -1.537909 1.086621
LeftShoulder -13.107157 -28.863909 20.415742
LeftArm -1.249290 -0.894845 -8.375231
LeftForeArm 7.005177 -0.000000 -1.790102
LeftHand -8.334609 -0.000000 -5.857458
LeftHandThumb1 -26.253704 0.000000 33.147579
RightShoulder -14.801669 -9.809595 -8.215343
RightArm 7.525128 38.643096 13.702735
RightForeArm -34.000357 -0.000000 6.542437
RightHand -6.137770 -0.000000 8.002450
RightHandThumb1 -24.326973 -0.000000 -32.862282
LeftUpLeg 4.014594 10.924653 2.544258
LeftLeg -6.859503 -0.000000 0.000000
LeftFoot -21.402070 25.876532 -13.778836
LeftToeBase 25.956223 -0.000000 -0.000000
RightUpLeg 2.418287 -11.969034 -0.338435
RightLeg -3.535315 -0.000000 0.000000
RightFoot -20.706235 -22.917016 17.356000
RightToeBase 23.633380 -0.000000 -0.000000
55
root 17.879042 35.473441 -21.764512 -174.454671 -0.353420 -178.367594
Spine -12.940601 1.007324 0.459118
Head 5.855807 -1.533164 1.100403
LeftShoulder -13.132078 -28.836877 20.433810
LeftArm -1.213619 -0.942390 -8.395036
LeftForeArm 6.998482 -0.000000 -1.808021
LeftHand -8.327447 0.000000 -5.853938
LeftHandThumb1 -26.253704 0.000000 33.147579
RightShoulder -14.792414 -9.799618 -8.210614
RightArm 7.492031 38.583460 13.650847
RightForeArm -34.018991 -0.000000 6.540982
RightHand -6.123555 0.000000 8.073523
RightHandThumb1 -24.326973 -0.000000 -32.862282
LeftUpLeg 4.007437 10.932220 2.549632
LeftLeg -6.846578 -0.000000 0.000000
LeftFoot -21.409825 25.875607 -13.790522
LeftToeBase 26.066030 -0.000000 -0.000000
RightUpLeg 2.414176 -11.954990 -0.332135
RightLeg -3.533375 -0.000000 0.000000
RightFoot -20.704344 -22.908584 17.368896
RightToeBase 23.572731 -0.000000 -0.000000
